<svg xmlns="http://www.w3.org/2000/svg" viewBox="0 0 100 100" fill="none" x="0px" y="0px" className="fill-current text-white"><path fill-rule="evenodd" clip-rule="evenodd" d="M87.5321 26.2954C84.707 17.4515 79.0853 10.9411 70.5479 6.80129C65.0608 4.27158 59.3604 3.24676 53.3648 3.90572C48.1497 4.4789 43.3306 6.10324 39.0637 9.14164C31.5031 14.5255 27.4002 21.8086 26.6875 30.9263C26.6564 31.3233 26.5327 31.593 26.1929 31.8023C25.6074 32.163 25.0299 32.5362 24.4525 32.9093C24.3476 32.977 24.2427 33.0448 24.1377 33.1125C22.071 34.4458 20.0162 35.795 18.0665 37.2924C17.3937 37.8091 17.0647 38.4251 17.2778 39.2642C17.4637 39.9962 18.0703 40.3189 18.6863 40.6137C21.758 42.084 24.9858 43.1392 28.3084 43.8817C29.4362 44.1337 30.2366 44.5522 30.7537 45.5956C30.7891 45.6671 30.8221 45.7322 30.8524 45.792C31.1751 46.4284 31.1889 46.4557 30.498 47.0412C27.9142 49.231 25.5649 51.6278 23.5359 54.3314C20.2308 58.7353 17.97 63.5766 16.9851 68.9689C16.8864 69.5093 16.8134 70.0541 16.7386 70.6115C16.7035 70.8734 16.668 71.138 16.6293 71.4063C16.3692 71.337 16.1171 71.2637 15.8695 71.1916C15.2135 71.0008 14.5884 70.8189 13.9268 70.7451C9.88624 70.2942 7.21831 73.5183 7.66613 77.1762C7.85633 78.7298 8.59496 80.0471 9.49553 81.2873C11.9544 84.6736 15.2311 87.1538 18.8671 89.1904C24.5423 92.3691 30.6703 94.2753 37.1073 95.3232C40.7392 95.9145 44.3912 96.2726 48.0617 96.3306L48.1233 96.3315C51.8235 96.39 55.5267 96.4485 59.2298 96.2443C62.0896 96.0866 64.9147 95.7537 67.7101 95.1515C76.9603 93.1586 83.8138 88.0324 88.3244 79.9173C90.6512 75.7312 91.9198 71.2141 92.326 66.4628C92.5578 63.7526 92.5541 61.0462 92.1395 58.3565C91.4976 54.1936 90.0232 50.3249 87.6795 46.7883C87.3553 46.2991 87.2817 45.8674 87.4752 45.3025C88.25 43.0416 88.6878 40.7013 88.8753 38.3324C89.1987 34.2456 88.7864 30.2215 87.5321 26.2954ZM64.7016 62.7133C63.5899 60.1856 62.1207 57.8678 60.2417 55.8097C56.1069 51.0976 50.8542 48.4939 44.8474 47.1547C42.7208 46.6805 40.6424 46.0392 38.7472 44.9295C35.282 42.9005 33.2778 39.8881 32.4864 36.0543C32.3922 35.5976 32.3288 35.1376 32.3295 34.6672C32.3304 34.0653 32.6426 34.069 33.08 34.2524C33.8592 34.5792 34.6387 34.9052 35.4182 35.2312C35.9328 35.4465 36.4473 35.6617 36.9618 35.8771C36.9959 35.8914 37.0292 35.9076 37.0625 35.9237C37.0903 35.9372 37.1181 35.9507 37.1464 35.9631C38.5638 36.5847 39.0393 36.2878 39.3094 34.7937C39.8756 31.6613 41.2355 28.8671 43.3682 26.4755C47.2645 22.1061 52.2583 20.0788 58.1081 20.6141C63.937 21.1475 68.5569 23.9566 71.8403 28.7609C74.0024 31.9244 74.9588 35.4262 74.6133 39.203C74.2905 42.7311 72.8444 45.8387 70.4803 48.5282C70.3613 48.6636 70.2452 48.8016 70.1263 48.943C70.07 49.0098 70.0131 49.0775 69.9549 49.146C70.1436 49.4883 70.447 49.6517 70.741 49.81C70.8192 49.8521 70.8966 49.8938 70.9711 49.9384C73.71 51.5795 75.6391 53.864 76.6725 56.845C77.4876 59.1965 77.3374 61.5681 76.7078 63.9315C76.2588 65.6166 75.5835 67.2146 74.7359 68.7457C74.3337 69.4722 73.9841 70.2281 74.0489 71.0829C74.1496 72.4093 75.3316 73.365 76.9173 73.3948C79.5662 73.4446 81.9326 72.5107 84.2267 71.3407C84.3618 71.2718 84.495 71.1991 84.6281 71.1264C84.7721 71.0478 84.9161 70.9691 85.0627 70.8953C85.0973 70.8778 85.1431 70.8818 85.1973 70.8865C85.2251 70.8889 85.2551 70.8915 85.287 70.8915C85.4059 71.14 85.3283 71.3853 85.257 71.6105C85.2453 71.6475 85.2337 71.6841 85.2232 71.72C82.6988 80.3648 77.2237 86.2322 68.3085 88.7852C63.5485 90.1482 58.6544 90.2588 53.7414 90.0425C53.6072 90.0366 53.4733 90.013 53.3407 89.9895L53.3377 89.989C53.311 89.9843 53.2863 89.9687 53.2508 89.9463C53.2308 89.9337 53.2074 89.919 53.1783 89.9028C53.2053 89.6242 53.3551 89.3952 53.5052 89.1659C53.5705 89.0662 53.6358 88.9664 53.691 88.8625C56.0915 84.346 54.574 78.6591 49.6587 76.4589C47.6734 75.5702 45.599 75.6184 43.5542 76.3169C43.0508 76.4889 42.614 76.505 42.1151 76.334C36.4908 74.4056 31.9688 78.0786 31.0277 82.9643C30.9826 83.1983 30.9328 83.4314 30.8826 83.6661C30.8592 83.7757 30.8357 83.8856 30.8126 83.9962C30.5073 83.9543 30.4675 83.7676 30.4307 83.5953C30.4231 83.5596 30.4156 83.5246 30.4059 83.4916C29.3829 79.9974 29.8155 76.6631 31.6859 73.5433C34.3534 69.0943 38.4781 66.6963 43.533 65.6633C43.8725 65.594 44.2116 65.5227 44.5795 65.4453C44.7604 65.4073 44.9483 65.3678 45.1466 65.3264C44.9155 64.9147 44.6048 64.5848 44.3004 64.2615C43.9892 63.931 43.6845 63.6075 43.4783 63.2108C44.0936 63.5266 44.6106 63.9607 45.1258 64.3934C45.309 64.5472 45.4919 64.7008 45.679 64.8488C49.6418 67.9852 53.716 70.9605 58.3163 73.1624C60.254 74.0898 62.2279 74.9475 64.3763 75.3114C66.0153 75.589 67.3178 74.6007 67.2629 72.9278C67.1452 69.3357 66.1357 65.9741 64.7016 62.7133ZM42.0904 82.2527C42.7519 82.05 43.3486 82.1652 43.7944 82.7378C44.1652 83.3786 44.1593 84.0265 44.1534 84.6611C44.1502 85.0122 44.1471 85.3592 44.2078 85.6986C44.2148 85.7377 44.2151 85.7781 44.2154 85.8194C44.2164 85.9314 44.2173 86.0498 44.3516 86.1671C44.6779 85.902 44.9168 85.5702 45.1542 85.2403C45.2753 85.0721 45.3961 84.9044 45.5278 84.7464C45.8308 84.3829 46.1388 84.0264 46.5165 83.7416C47.1237 83.2837 47.8546 83.2999 48.3929 83.7525C48.9352 84.2084 49.1006 84.9236 48.7021 85.5625C47.7917 87.0223 46.8202 88.4479 45.6994 89.7614C45.0125 90.5664 44.0502 90.6437 43.1346 90.0556C42.8331 89.8619 42.6194 89.7411 42.243 90.0025C41.2187 90.7138 40.1961 90.5887 39.424 89.6181C38.421 88.3574 37.4717 87.0518 36.6309 85.6795C36.1406 84.8794 36.2559 84.237 36.8902 83.72C37.467 83.2497 38.2347 83.3112 38.9254 83.9102C39.3494 84.278 39.6977 84.7124 40.046 85.1467C40.1745 85.307 40.303 85.4672 40.4353 85.6241C40.4687 85.6637 40.4992 85.7061 40.5301 85.7489C40.6305 85.8883 40.7341 86.032 40.9489 86.0979C41.1119 85.8306 41.0936 85.5429 41.0755 85.2572C41.0677 85.1346 41.0599 85.0124 41.0665 84.8923C41.0781 84.6795 41.0755 84.466 41.0729 84.2524C41.0709 84.088 41.0689 83.9235 41.0734 83.7593C41.0938 83.018 41.4601 82.4458 42.0904 82.2527ZM53.139 29.9826C51.3443 29.1098 49.6154 29.3829 48.0569 30.73C47.3901 31.4004 46.964 32.1368 46.7881 33.0196C46.4469 34.7316 46.9572 36.1456 48.3342 37.2306C49.7379 38.3366 51.3293 38.5038 52.941 37.7956C54.5661 37.0814 55.5851 35.8265 55.6364 34.0254C55.6888 32.1869 54.7907 30.7858 53.139 29.9826Z" fill="black"/></svg>