<svg xmlns="http://www.w3.org/2000/svg" version="1.0" viewBox="0 0 1024 1024" preserveAspectRatio="xMidYMid meet" x="0px" y="0px"><g transform="translate(0.000000,1024.000000) scale(0.100000,-0.100000)" fill="#000000" stroke="none"><path d="M4500 8644 c-555 -75 -1025 -405 -1268 -889 -53 -106 -94 -225 -128 -371 -25 -108 -28 -136 -28 -304 1 -102 6 -207 11 -234 13 -58 25 -43 -157 -199 -258 -223 -406 -358 -422 -385 -24 -39 -23 -99 2 -139 29 -48 53 -57 137 -49 143 12 958 116 990 127 46 15 93 72 93 113 0 18 -12 70 -26 117 -51 167 -65 317 -43 462 58 392 332 686 708 762 112 23 304 16 409 -14 358 -104 626 -422 682 -810 16 -104 8 -328 -14 -431 -40 -180 -79 -278 -265 -649 -180 -358 -237 -489 -290 -657 -45 -145 -65 -232 -81 -347 -57 -436 26 -844 236 -1157 112 -168 202 -193 395 -110 402 171 805 606 993 1074 46 114 81 244 102 376 20 129 45 179 107 209 24 12 58 21 77 21 55 0 119 -37 151 -88 28 -44 29 -51 29 -165 0 -263 -115 -606 -294 -876 -55 -83 -56 -86 -56 -157 0 -106 -18 -263 -45 -400 -73 -361 -267 -704 -540 -952 -223 -203 -485 -322 -805 -367 -320 -44 -395 -61 -513 -114 -141 -63 -288 -191 -360 -312 -43 -74 -54 -118 -37 -158 25 -62 16 -61 692 -61 337 0 630 4 651 9 87 21 149 95 151 181 l1 48 65 7 c621 60 1139 215 1567 466 310 183 336 261 129 383 -197 116 -369 292 -442 451 l-26 57 30 76 c214 547 272 1147 177 1829 -105 749 -406 1736 -721 2364 -226 452 -537 809 -892 1024 -339 205 -746 291 -1132 239z"/><path d="M4351 7106 c-160 -58 -203 -273 -76 -384 49 -44 78 -54 147 -54 130 1 231 97 232 222 2 155 -157 269 -303 216z"/><path d="M3333 5763 c-366 -518 -557 -947 -649 -1458 -26 -143 -27 -573 -1 -730 79 -490 284 -899 621 -1241 l121 -123 -57 -22 c-93 -34 -201 -103 -267 -171 -102 -102 -125 -173 -77 -233 l24 -30 426 -3 c319 -2 426 0 426 9 0 17 50 127 84 184 41 69 109 156 179 231 l59 63 -44 18 c-213 85 -396 203 -556 357 -380 366 -579 883 -559 1446 20 534 215 1023 623 1557 l93 121 -42 7 c-61 10 -224 63 -279 91 -26 13 -49 24 -52 24 -2 0 -35 -44 -73 -97z"/></g></svg>